<?xml version="1.0" standalone="no"?>
<!DOCTYPE svg PUBLIC "-//W3C//DTD SVG 20010904//EN"
 "http://www.w3.org/TR/2001/REC-SVG-20010904/DTD/svg10.dtd">
<svg version="1.0" xmlns="http://www.w3.org/2000/svg"
 width="2382.000000pt" height="1020.000000pt" viewBox="0 0 2382.000000 1020.000000"
 preserveAspectRatio="xMidYMid meet">

<g transform="translate(0.000000,1020.000000) scale(0.100000,-0.100000)"
fill="#000000" stroke="none">
<path d="M10718 8440 c-138 -13 -398 -73 -382 -89 5 -5 1663 -19 1672 -14 6 3
-218 73 -286 90 -55 13 -144 16 -492 18 -234 2 -464 -1 -512 -5z"/>
<path d="M10250 8180 c-434 -6 -431 -6 -561 -64 l-54 -23 635 -7 c349 -3 1031
-8 1515 -11 l880 -5 -115 58 -114 57 -891 1 c-489 0 -1072 -3 -1295 -6z"/>
<path d="M10130 7920 l-895 -5 -80 -33 c-44 -17 -86 -36 -93 -40 -13 -9 845
-17 2878 -28 l1125 -6 -55 41 c-111 82 -31 76 -1065 76 -506 0 -1323 -2 -1815
-5z"/>
<path d="M10000 7660 c-1442 -6 -1370 -3 -1481 -54 l-50 -24 113 -6 c62 -3
1004 -10 2093 -16 1089 -5 2135 -13 2325 -16 l345 -6 -24 26 c-36 38 -101 74
-167 91 -63 16 -186 17 -3154 5z"/>
<path d="M9885 7400 c-1652 -4 -1834 -7 -1875 -21 -78 -28 -131 -51 -127 -56
3 -2 5065 -42 5602 -43 l69 0 -38 39 c-22 22 -62 50 -90 63 l-51 23 -830 0
c-456 0 -1653 -2 -2660 -5z"/>
<path d="M11870 7140 l-185 -5 77 -32 c176 -74 120 -70 1078 -79 845 -7 862
-7 852 12 -20 36 -77 83 -121 99 -38 13 -138 15 -780 13 -405 -1 -819 -5 -921
-8z"/>
<path d="M7670 7130 c-213 -7 -270 -16 -361 -54 -32 -13 500 -20 2556 -29 495
-2 478 -4 631 63 l69 29 -1340 -1 c-737 -1 -1437 -5 -1555 -8z"/>
<path d="M12270 6880 l-145 -5 45 -27 c109 -66 133 -71 320 -79 96 -4 430 -8
743 -8 497 -1 567 1 567 14 0 27 -68 91 -108 103 -41 12 -1113 14 -1422 2z"/>
<path d="M7540 6870 l-715 -5 -58 -24 c-31 -13 -55 -27 -51 -30 9 -9 3141 -28
3197 -19 49 7 137 44 172 72 18 14 -60 15 -905 13 -509 -1 -1247 -4 -1640 -7z"/>
<path d="M20346 6769 c-129 -19 -240 -98 -298 -212 -98 -195 -68 -507 61 -636
154 -154 472 -147 621 15 88 96 125 218 117 394 -5 127 -31 216 -83 292 -78
112 -249 172 -418 147z m189 -165 c92 -43 143 -139 152 -284 10 -149 -33 -259
-124 -324 -34 -24 -55 -30 -115 -34 -96 -6 -150 10 -204 60 -64 59 -87 126
-88 258 -1 128 18 198 70 258 37 44 77 70 129 83 45 12 138 3 180 -17z"/>
<path d="M15274 6749 c-158 -53 -251 -186 -277 -392 -27 -220 48 -412 191
-490 103 -56 251 -72 380 -42 106 25 119 35 127 102 3 32 9 69 12 82 l6 25
-34 -21 c-83 -51 -248 -69 -340 -38 -135 46 -205 200 -179 388 22 155 112 246
261 263 66 7 186 -16 235 -47 19 -12 37 -20 38 -18 7 8 -17 144 -26 156 -6 7
-40 22 -75 33 -90 28 -235 27 -319 -1z"/>
<path d="M19377 6760 c-137 -35 -220 -150 -203 -284 16 -115 80 -173 259 -232
182 -60 217 -84 217 -152 0 -49 -28 -89 -78 -113 -78 -38 -263 -17 -416 46
-19 9 -19 8 1 -113 7 -40 30 -53 130 -76 135 -30 299 -18 393 29 157 79 199
278 83 391 -43 43 -73 57 -276 128 -100 36 -137 70 -137 125 0 55 22 86 76
107 60 23 184 15 282 -18 l73 -25 -7 56 c-11 88 -17 98 -76 117 -62 19 -264
28 -321 14z"/>
<path d="M16177 6743 c-6 -10 -328 -873 -335 -896 -4 -16 3 -18 78 -15 l82 3
32 85 32 85 194 0 194 0 35 -87 34 -88 90 0 c49 0 87 4 85 9 -1 5 -84 212
-183 460 l-180 451 -77 0 c-42 0 -79 -3 -81 -7z m157 -418 l73 -190 -145 -3
c-80 -1 -146 -1 -148 1 -2 2 23 80 56 173 75 209 83 230 87 218 2 -5 36 -94
77 -199z"/>
<path d="M16870 6290 l0 -460 275 0 275 0 0 70 0 70 -195 0 -195 0 0 390 0
390 -80 0 -80 0 0 -460z"/>
<path d="M17434 6688 c19 -35 91 -166 160 -293 l126 -230 0 -167 0 -168 80 0
80 0 0 169 0 168 155 287 c85 157 155 288 155 291 0 3 -37 5 -83 5 l-82 0
-105 -210 c-58 -115 -107 -210 -110 -210 -3 0 -53 94 -111 208 l-107 207 -97
3 -96 3 35 -63z"/>
<path d="M18350 6291 l0 -461 75 0 75 0 0 120 0 120 48 0 c75 1 175 18 225 39
61 26 133 93 165 156 24 45 27 61 27 155 0 86 -4 113 -21 151 -29 61 -85 116
-153 148 -53 25 -65 26 -248 29 l-193 4 0 -461z m357 298 c63 -31 97 -92 97
-178 1 -134 -62 -192 -216 -199 l-88 -4 0 201 0 201 82 0 c62 0 92 -5 125 -21z"/>
<path d="M12577 6620 l-208 -5 33 -32 c18 -18 56 -42 83 -55 l50 -23 673 -3
673 -3 -20 40 c-11 21 -37 50 -58 62 l-38 24 -490 0 c-269 1 -584 -2 -698 -5z"/>
<path d="M7425 6610 l-1190 -5 -65 -26 -65 -26 495 -7 c433 -5 1288 -11 2705
-18 396 -2 411 -2 455 18 25 12 56 33 69 48 l24 26 -619 -2 c-340 -2 -1154 -5
-1809 -8z"/>
<path d="M12808 6363 c-170 -2 -308 -6 -308 -9 0 -13 30 -61 48 -77 10 -10 34
-22 52 -27 19 -5 299 -10 658 -10 576 -1 626 0 643 16 28 25 24 68 -7 93 -29
23 -44 23 -1086 14z"/>
<path d="M7295 6350 l-1650 -5 -59 -22 c-32 -12 -61 -25 -64 -28 -3 -3 143 -5
324 -6 181 0 1087 -6 2014 -13 946 -7 1699 -8 1718 -3 33 8 102 61 102 78 0 5
-156 8 -367 7 -203 -2 -1110 -5 -2018 -8z"/>
<path d="M13022 6100 l-462 -5 18 -35 c12 -22 34 -43 63 -57 44 -21 50 -22
667 -25 608 -3 624 -3 638 16 15 21 18 64 6 82 -20 30 -54 34 -259 32 -114 -2
-416 -5 -671 -8z"/>
<path d="M7190 6090 c-1995 -5 -2138 -6 -2185 -23 -27 -9 -57 -21 -65 -27 -10
-6 165 -10 525 -11 297 0 1310 -6 2250 -13 941 -7 1725 -9 1744 -5 39 9 77 34
99 67 l14 22 -123 -2 c-68 -2 -1085 -5 -2259 -8z"/>
<path d="M4950 5820 c-450 -4 -531 -8 -565 -21 -38 -15 -18 -17 385 -23 348
-5 2226 -17 4190 -28 359 -2 377 -1 420 19 25 11 54 30 64 42 l19 21 -1994 -2
c-1097 -1 -2230 -5 -2519 -8z"/>
<path d="M4840 5560 c-854 -5 -1011 -8 -1045 -20 -39 -14 -34 -15 120 -18 612
-11 5376 -37 5403 -30 19 5 50 25 70 43 l37 34 -1790 -2 c-984 -1 -2242 -4
-2795 -7z"/>
<path d="M4710 5300 c-1400 -6 -1511 -8 -1537 -34 -4 -3 171 -6 388 -6 217 0
1602 -9 3079 -20 1909 -13 2688 -16 2697 -8 14 11 17 37 7 62 -6 15 -154 16
-1593 14 -872 -2 -2241 -5 -3041 -8z"/>
<path d="M15250 5296 c-139 -31 -207 -104 -218 -233 -8 -107 36 -186 132 -235
22 -12 92 -38 155 -59 132 -45 177 -75 187 -123 9 -49 -19 -102 -67 -127 -82
-42 -241 -31 -379 25 l-62 25 7 -67 c4 -37 11 -74 15 -82 20 -37 236 -77 345
-64 209 23 315 116 315 276 0 139 -49 186 -281 268 -60 21 -125 48 -144 60
-67 41 -65 142 3 182 61 36 194 31 321 -12 30 -10 56 -18 57 -17 1 1 -3 34 -9
74 l-10 72 -46 15 c-112 36 -223 44 -321 22z"/>
<path d="M16989 5300 c-72 -13 -130 -43 -170 -87 -48 -53 -62 -99 -57 -188 6
-130 62 -181 284 -256 65 -22 130 -49 146 -60 48 -35 54 -114 11 -161 -38 -42
-74 -53 -173 -52 -95 0 -202 24 -273 61 -16 8 -30 13 -32 11 -1 -2 3 -37 9
-78 11 -71 13 -76 46 -92 98 -47 306 -56 426 -20 140 43 211 140 202 277 -7
117 -70 174 -258 236 -169 56 -220 93 -220 159 0 35 28 79 63 97 63 34 225 19
360 -33 23 -8 -3 135 -27 148 -60 34 -247 55 -337 38z"/>
<path d="M20610 5297 c-137 -32 -203 -101 -216 -224 -11 -106 28 -184 120
-238 22 -13 91 -40 151 -61 134 -44 157 -56 184 -90 41 -53 16 -135 -52 -167
-82 -39 -242 -28 -377 27 l-62 25 6 -47 c16 -115 14 -110 72 -131 29 -11 95
-26 145 -32 302 -36 504 108 459 327 -21 101 -88 151 -294 220 -150 51 -175
72 -176 145 0 37 5 50 28 72 57 55 192 58 340 8 31 -11 58 -18 60 -17 1 2 -3
35 -9 75 l-12 71 -66 20 c-83 26 -228 34 -301 17z"/>
<path d="M15800 5287 c0 -2 72 -135 160 -296 l160 -292 0 -169 0 -170 80 0 80
0 0 172 0 172 155 287 c85 157 155 289 155 293 0 3 -37 6 -83 6 l-82 0 -105
-210 c-58 -115 -107 -210 -110 -210 -4 0 -55 95 -115 210 l-109 210 -93 0
c-51 0 -93 -2 -93 -3z"/>
<path d="M17530 5210 l0 -80 135 0 135 0 0 -385 0 -385 75 0 75 0 0 385 0 385
135 0 135 0 0 80 0 80 -345 0 -345 0 0 -80z"/>
<path d="M18380 4825 l0 -465 290 0 290 0 0 70 0 70 -215 0 -215 0 0 135 0
135 190 0 190 0 0 60 0 60 -187 2 -188 3 -3 128 -3 127 211 0 210 0 0 70 0 70
-285 0 -285 0 0 -465z"/>
<path d="M19180 4825 l0 -465 75 0 75 0 2 292 3 291 155 -288 c86 -159 160
-290 166 -292 6 -2 82 128 170 289 l159 293 3 -292 2 -293 75 0 75 0 0 465 0
466 -61 -3 -62 -3 -172 -318 c-94 -175 -175 -319 -178 -320 -4 -1 -85 142
-180 318 l-172 320 -68 3 -67 3 0 -466z"/>
<path d="M4630 5040 c-1584 -4 -1849 -7 -1815 -19 33 -11 615 -18 3265 -37
1774 -13 3235 -22 3247 -19 27 6 38 37 23 65 -11 20 -11 20 -1438 18 -785 -2
-2262 -5 -3282 -8z"/>
<path d="M5115 4780 c-1411 -4 -1763 -7 -1735 -17 19 -7 53 -15 75 -18 52 -7
5926 -47 5933 -40 9 8 -31 46 -70 66 -41 21 15 21 -4203 9z"/>
<path d="M5551 4520 c-1354 -4 -1620 -7 -1596 -18 16 -7 63 -17 104 -22 77
-10 5399 -45 5408 -37 9 10 -83 56 -142 71 -65 17 -99 17 -3774 6z"/>
<path d="M12705 4266 c-33 -14 -85 -69 -85 -90 0 -19 239 -26 847 -26 500 0
514 1 533 20 11 11 20 31 20 45 0 14 -9 34 -20 45 -20 20 -33 20 -642 20 -495
-1 -629 -4 -653 -14z"/>
<path d="M6030 4260 c-1491 -5 -1534 -6 -1485 -23 28 -10 77 -20 110 -23 56
-4 4139 -34 4620 -34 l220 1 -37 34 c-20 18 -53 38 -75 44 -39 11 -231 11
-3353 1z"/>
<path d="M12659 4010 c-14 -4 -37 -15 -51 -24 -28 -18 -55 -72 -44 -84 4 -4
317 -9 696 -10 l688 -4 16 23 c22 31 20 65 -4 89 -20 20 -33 20 -647 19 -346
0 -640 -4 -654 -9z"/>
<path d="M6495 4000 c-1392 -5 -1419 -5 -1375 -23 31 -13 88 -21 185 -27 167
-10 4253 -35 4262 -27 11 11 -58 66 -95 77 -38 10 -135 10 -2977 0z"/>
<path d="M16853 3830 c-99 -23 -206 -108 -253 -199 -75 -148 -80 -404 -9 -542
30 -59 96 -127 151 -155 133 -67 325 -72 448 -11 l45 22 10 76 11 76 -66 -31
c-61 -29 -72 -31 -180 -31 -127 0 -155 9 -218 69 -42 39 -66 85 -81 154 -39
183 26 357 154 413 91 40 230 32 328 -18 l50 -25 -7 62 c-11 99 -16 106 -92
129 -69 22 -223 28 -291 11z"/>
<path d="M15030 3360 l0 -460 290 0 290 0 0 70 0 70 -205 0 -205 0 0 390 0
390 -85 0 -85 0 0 -460z"/>
<path d="M15800 3360 l0 -460 295 0 296 0 -3 68 -3 67 -207 3 -208 2 0 390 0
390 -85 0 -85 0 0 -460z"/>
<path d="M12570 3751 c-45 -14 -71 -35 -90 -72 l-19 -36 97 -6 c135 -9 1324
-8 1338 1 39 25 36 90 -5 111 -23 13 -1281 14 -1321 2z"/>
<path d="M6980 3740 l-1325 -5 60 -24 c55 -23 76 -25 255 -29 200 -4 3713 -29
3718 -26 10 5 -49 60 -82 75 -46 21 215 20 -2626 9z"/>
<path d="M12650 3490 c-214 -6 -241 -12 -303 -78 l-28 -29 107 -6 c59 -4 379
-7 711 -7 666 0 643 -2 701 64 61 70 89 66 -480 64 -282 -1 -601 -5 -708 -8z"/>
<path d="M7456 3480 c-1050 -4 -1216 -7 -1190 -19 95 -45 22 -43 1854 -56 954
-7 1736 -11 1738 -10 7 6 -44 47 -83 68 -40 22 -46 22 -570 22 -291 0 -1079
-2 -1749 -5z"/>
<path d="M12730 3230 c-419 -5 -437 -6 -489 -27 -29 -12 -72 -35 -95 -50 l-41
-28 135 -6 c74 -4 419 -7 765 -8 593 -1 632 1 671 18 36 17 104 84 104 103 0
8 -283 8 -1050 -2z"/>
<path d="M7915 3220 l-1100 -5 55 -21 c30 -12 87 -27 125 -33 69 -10 3122 -38
3132 -27 9 9 -144 76 -196 86 -32 6 -229 9 -485 8 -237 -2 -926 -5 -1531 -8z"/>
<path d="M12725 2970 l-820 -5 -144 -50 -144 -50 339 -6 c186 -3 615 -7 953
-8 l614 -1 43 25 c36 21 84 77 84 99 0 3 -24 5 -52 4 -29 -2 -422 -5 -873 -8z"/>
<path d="M8381 2960 l-995 -5 80 -28 c115 -42 203 -44 1784 -51 l1385 -6 -55
21 c-30 11 -98 32 -150 46 l-95 27 -480 1 c-264 0 -927 -2 -1474 -5z"/>
<path d="M8835 2700 l-870 -5 75 -27 c41 -15 102 -32 135 -37 61 -10 4780 -47
5031 -39 108 3 136 7 170 25 48 25 104 71 104 84 0 9 -3000 9 -4645 -1z"/>
<path d="M9310 2440 l-765 -5 90 -34 c88 -33 94 -34 310 -42 121 -4 1091 -13
2155 -19 1508 -9 1945 -9 1980 0 55 15 125 51 165 84 l30 25 -1600 -2 c-880
-1 -1944 -4 -2365 -7z"/>
<path d="M9780 2180 l-655 -5 82 -32 c44 -18 112 -37 150 -42 110 -16 3338
-36 3410 -21 66 14 141 47 192 85 l35 25 -1280 -2 c-703 -2 -1574 -5 -1934 -8z"/>
<path d="M10235 1920 l-530 -5 65 -28 c136 -60 86 -57 1340 -67 754 -7 1174
-7 1208 0 47 8 262 96 262 106 0 5 -1661 1 -2345 -6z"/>
<path d="M10785 1660 l-350 -5 140 -44 140 -45 375 -4 375 -3 244 50 c135 28
247 53 249 56 6 6 -651 3 -1173 -5z"/>
</g>
</svg>
